<svg xmlns="http://www.w3.org/2000/svg" width="60" height="60">
  <defs>
    <clipPath id="a">
      <path fill="#e6731f" d="M550 2902h60v60h-60z"/>
    </clipPath>
  </defs>
  <g clip-path="url(#a)" transform="translate(-550 -2902)">
    <g fill="#365486">
      <path d="M598.359 2958.829a2.026 2.026 0 0 1 1.408.569 9.4 9.4 0 0 0 9.27 2.184 17.959 17.959 0 0 1-.749-13.761c1.981-5.664 2.478-11.341.223-17.035a21.847 21.847 0 0 0-10.641-11.527 26.217 26.217 0 0 1 .448 4.837 26.088 26.088 0 0 1-25.787 26.139 26.265 26.265 0 0 1-3.844-.223 22.239 22.239 0 0 0 18.923 11.164 21.932 21.932 0 0 0 9.876-2.149 2.021 2.021 0 0 1 .873-.198Z"/>
      <path d="M572.589 2902A22.186 22.186 0 0 0 550 2924.042a21.922 21.922 0 0 0 1.746 8.672c.017.04.033.08.047.121a17.959 17.959 0 0 1-.749 13.765 9.4 9.4 0 0 0 9.27-2.184 2.026 2.026 0 0 1 2.286-.376 21.9 21.9 0 0 0 9.876 2.149 21.94 21.94 0 0 0 21.791-22.089 22.227 22.227 0 0 0-21.678-22.1Zm-12.262 25.4a3.2 3.2 0 1 1 3.2-3.2 3.2 3.2 0 0 1-3.2 3.2Zm11.806 0a3.2 3.2 0 1 1 3.2-3.2 3.2 3.2 0 0 1-3.199 3.2Zm11.806 0a3.2 3.2 0 1 1 3.2-3.2 3.2 3.2 0 0 1-3.199 3.2Z"/>
    </g>
  </g>
</svg>