<svg xmlns="http://www.w3.org/2000/svg" width="60" height="60">
  <defs>
    <clipPath id="a">
      <path fill="#e6731f" d="M550 2902h60v60h-60z"/>
    </clipPath>
  </defs>
  <g clip-path="url(#a)" transform="translate(-550 -2902)">
    <path fill="#365486" d="M559 2902a4.523 4.523 0 0 0-4.5 4.5v51a4.523 4.523 0 0 0 4.5 4.5h42a4.523 4.523 0 0 0 4.5-4.5V2920H592a4.523 4.523 0 0 1-4.5-4.5V2902Zm31.5.879v12.621a1.478 1.478 0 0 0 1.5 1.5h12.621ZM567.25 2917h13.5a1.5 1.5 0 0 1 0 3h-13.5a1.5 1.5 0 0 1 0-3Zm0 9h25.5a1.5 1.5 0 1 1 0 3h-25.5a1.5 1.5 0 1 1 0-3Zm0 9h25.5a1.5 1.5 0 1 1 0 3h-25.5a1.5 1.5 0 1 1 0-3Zm0 9h25.5a1.5 1.5 0 1 1 0 3h-25.5a1.5 1.5 0 0 1 0-3Z"/>
  </g>
</svg>