<svg xmlns="http://www.w3.org/2000/svg" width="60" height="60">
  <defs>
    <clipPath id="a">
      <path fill="#e6731f" d="M522 2902h60v60h-60z"/>
    </clipPath>
  </defs>
  <g clip-path="url(#a)" transform="translate(-522 -2902)">
    <path fill="#365486" d="M580.07 2945.2c-.164-.13-12.07-8.712-15.338-8.1-1.56.276-2.452 1.34-4.242 3.47-.288.344-.98 1.168-1.518 1.754a25.033 25.033 0 0 1-3.3-1.344 27.4 27.4 0 0 1-12.644-12.638 24.917 24.917 0 0 1-1.344-3.3c.588-.54 1.412-1.232 1.764-1.528 2.12-1.78 3.186-2.672 3.462-4.236.566-3.24-8.01-15.228-8.1-15.336a4.578 4.578 0 0 0-3.41-1.942c-3.476 0-13.4 12.874-13.4 15.042 0 .126.182 12.934 15.976 29 16.05 15.776 28.856 15.958 28.982 15.958 2.17 0 15.042-9.924 15.042-13.4a4.566 4.566 0 0 0-1.93-3.4Z"/>
  </g>
</svg>