<svg xmlns="http://www.w3.org/2000/svg" width="18" height="18">
  <path fill="#fff" d="M17.421 12.96c-.049-.039-3.621-2.614-4.6-2.429-.468.083-.736.4-1.273 1.041-.086.1-.294.35-.455.526a7.51 7.51 0 0 1-.991-.4A8.22 8.22 0 0 1 6.308 7.9a7.475 7.475 0 0 1-.4-.991c.176-.162.424-.37.529-.458.636-.534.956-.8 1.039-1.271.17-.972-2.4-4.568-2.43-4.6A1.373 1.373 0 0 0 4.02 0C2.977 0 0 3.862 0 4.513c0 .038.055 3.88 4.793 8.7C9.608 17.945 13.45 18 13.487 18 14.138 18 18 15.023 18 13.98a1.37 1.37 0 0 0-.579-1.02Z"/>
</svg>